<svg xmlns="http://www.w3.org/2000/svg" width="280pt" height="160pt" version="1.1" viewBox="0 0 280 160"><g id="#018ed5ff"><path fill="#018ed5" d="M 53.94 38.06 C 57.42 36.62 61.32 35.77 65.05 36.67 C 70.50 38.50 73.93 44.32 73.79 49.94 C 74.08 62.43 69.28 74.20 66.07 86.07 C 65.94 86.50 65.67 87.37 65.53 87.80 C 61.94 95.98 59.73 105.02 54.03 112.07 C 52.66 114.31 49.44 113.86 48.60 111.43 C 44.83 102.17 48.31 90.92 42.35 82.39 C 41.87 81.80 41.36 81.24 40.84 80.69 C 38.14 77.68 34.58 75.70 30.89 74.17 C 35.38 74.86 39.12 77.48 42.92 79.75 C 46.09 79.68 49.31 79.08 52.46 79.81 C 55.85 80.59 59.01 82.14 62.34 83.15 C 64.23 73.22 66.54 63.15 65.63 52.97 C 65.31 48.34 61.48 44.20 56.78 43.89 C 49.39 42.89 43.52 49.61 36.09 48.10 C 42.69 45.91 47.46 40.47 53.94 38.06 M 44.61 81.40 C 48.97 87.95 51.17 95.56 52.42 103.26 C 57.19 98.60 59.54 92.05 61.52 85.81 C 57.24 81.68 50.47 79.94 44.61 81.40 Z" opacity="1"/><path fill="#018ed5" d="M 185.01 58.05 C 189.26 54.99 196.54 54.41 199.72 59.28 C 195.66 59.81 190.92 57.20 187.53 60.50 C 184.49 64.09 184.22 69.40 185.32 73.79 C 186.05 77.32 189.36 80.16 192.99 80.11 C 195.03 79.90 197.04 79.47 199.08 79.17 C 198.61 82.04 195.40 82.58 193.03 83.05 C 187.62 83.71 182.07 79.88 180.71 74.59 C 179.05 68.93 179.89 61.71 185.01 58.05 Z" opacity="1"/><path fill="#018ed5" d="M 202.32 55.77 C 203.66 56.75 205.39 57.43 206.13 59.03 C 206.68 65.86 205.89 72.75 206.48 79.58 C 207.16 79.93 208.53 80.64 209.22 80.99 C 207.79 82.63 205.56 83.52 203.52 82.43 C 202.01 81.05 202.31 78.83 202.18 77.00 C 202.23 69.92 202.06 62.84 202.32 55.77 Z" opacity="1"/><path fill="#018ed5" d="M 212.38 56.36 C 213.80 56.35 215.23 56.34 216.65 56.34 C 216.60 57.68 216.51 59.02 216.39 60.36 C 215.13 60.36 213.87 60.35 212.62 60.33 C 212.50 59.01 212.42 57.68 212.38 56.36 Z" opacity="1"/><path fill="#018ed5" d="M 241.40 56.50 C 242.86 56.43 244.32 56.35 245.79 56.25 C 245.70 57.69 245.60 59.13 245.48 60.57 C 244.48 60.50 243.49 60.39 242.51 60.23 C 241.15 59.50 241.69 57.73 241.40 56.50 Z" opacity="1"/><path fill="#018ed5" d="M 221.67 69.75 C 224.02 63.30 235.14 62.89 237.26 69.77 C 237.90 74.14 237.43 78.61 237.50 83.03 C 236.01 82.25 233.39 82.02 233.32 79.90 C 233.13 76.13 233.46 72.31 232.43 68.63 C 230.53 67.65 228.43 67.66 226.49 68.52 C 225.07 73.22 225.84 78.15 225.57 82.97 C 224.17 82.33 222.44 81.98 221.61 80.54 C 221.23 76.97 221.17 73.31 221.67 69.75 Z" opacity="1"/><path fill="#018ed5" d="M 212.53 68.97 C 212.32 66.58 214.90 65.69 216.61 64.80 C 216.73 69.65 216.67 74.50 216.66 79.35 C 217.23 79.63 218.38 80.19 218.95 80.47 C 218.83 81.02 218.61 82.12 218.49 82.67 C 216.87 82.66 215.24 82.65 213.62 82.65 C 212.03 78.26 212.44 73.54 212.53 68.97 Z" opacity="1"/><path fill="#018ed5" d="M 254.93 82.10 C 248.87 78.71 249.06 67.61 256.10 65.50 C 259.17 64.79 264.33 64.55 264.91 68.73 C 262.24 68.57 259.24 66.98 256.79 68.73 C 254.21 71.52 254.27 76.36 256.71 79.23 C 258.85 81.71 262.39 79.69 265.08 79.65 C 263.48 83.55 258.21 83.49 254.93 82.10 Z" opacity="1"/><path fill="#018ed5" d="M 241.74 68.93 C 241.59 66.60 244.17 65.78 245.74 64.78 C 245.89 69.62 245.81 74.46 245.81 79.30 C 246.86 79.85 247.93 80.40 249.01 80.94 C 247.43 83.07 244.95 83.02 242.64 82.42 C 241.39 78.04 241.56 73.44 241.74 68.93 Z" opacity="1"/></g><g id="#00459aff"><path fill="#00459a" d="M 1.31 46.81 C 3.11 38.88 12.82 35.95 19.90 37.93 C 27.60 40.81 29.99 50.23 37.49 53.47 C 44.11 56.30 51.35 53.59 57.32 50.46 C 52.62 56.01 45.15 58.20 38.06 57.27 C 29.64 56.94 24.73 48.72 17.01 46.56 C 12.08 45.58 8.29 50.51 7.83 54.97 C 6.97 63.07 8.92 71.11 10.56 78.99 C 12.40 86.61 14.08 94.39 17.57 101.46 C 18.49 102.87 19.43 105.50 21.57 104.68 C 23.91 100.20 24.91 95.06 28.01 90.98 C 31.05 86.26 35.64 82.73 40.84 80.69 C 41.36 81.24 41.87 81.80 42.35 82.39 C 36.59 84.83 31.16 88.96 28.69 94.86 C 26.37 100.82 27.32 107.61 24.52 113.43 C 23.92 115.32 21.25 115.20 20.03 114.00 C 17.43 111.42 15.86 108.00 14.53 104.63 C 9.82 91.20 5.44 77.64 1.85 63.86 C 0.72 58.27 0.80 52.46 1.31 46.81 Z" opacity="1"/><path fill="#00459a" d="M 79.44 56.61 C 83.44 55.33 88.02 55.59 91.93 57.11 C 100.97 62.03 100.38 76.81 91.84 81.95 C 88.85 83.64 85.28 83.38 81.97 83.29 C 79.68 83.41 77.37 81.44 77.50 79.07 C 77.38 73.02 77.47 66.97 77.46 60.92 C 77.33 59.25 77.92 57.49 79.44 56.61 M 81.88 59.90 C 81.58 66.45 81.92 73.00 81.73 79.55 C 83.47 79.85 85.24 80.47 87.01 79.99 C 90.96 79.67 93.08 75.58 93.63 72.08 C 94.37 67.64 93.70 62.03 89.44 59.54 C 87.13 58.75 83.69 57.83 81.88 59.90 Z" opacity="1"/><path fill="#00459a" d="M 170.45 55.84 C 172.15 56.77 174.75 57.68 174.48 60.09 C 174.56 66.54 174.48 73.00 174.48 79.46 C 175.13 79.73 176.42 80.27 177.07 80.54 C 176.87 81.06 176.47 82.10 176.27 82.62 C 174.72 82.66 173.16 82.68 171.61 82.72 C 170.92 80.89 170.28 79.01 170.37 77.03 C 170.39 69.96 170.31 62.90 170.45 55.84 Z" opacity="1"/><path fill="#00459a" d="M 139.57 62.98 C 139.17 60.44 141.92 59.55 143.56 58.29 C 143.66 60.43 143.68 62.57 143.73 64.71 C 145.47 64.70 147.22 64.69 148.97 64.69 C 148.96 67.65 146.17 68.58 143.66 68.67 C 143.93 72.16 142.90 76.08 144.92 79.21 C 146.33 80.24 148.09 79.94 149.70 79.85 C 148.32 84.62 141.26 83.20 140.15 78.92 C 138.90 73.75 139.75 68.27 139.57 62.98 Z" opacity="1"/><path fill="#00459a" d="M 102.99 68.09 C 104.57 65.75 107.49 65.31 110.00 64.62 C 112.24 65.27 114.86 65.74 116.08 67.98 C 117.89 70.88 115.81 74.80 112.58 75.40 C 110.21 75.72 107.81 75.50 105.43 75.52 C 106.05 77.46 106.53 79.92 108.90 80.43 C 111.33 80.34 113.72 79.89 116.14 79.65 C 113.34 84.31 105.39 83.94 102.79 79.25 C 100.86 75.90 100.84 71.33 102.99 68.09 M 106.85 68.91 C 106.36 70.09 105.87 71.28 105.39 72.46 C 107.61 73.45 110.00 73.17 112.23 72.39 C 112.56 71.75 113.22 70.46 113.55 69.81 C 112.43 69.00 111.30 68.20 110.16 67.43 C 109.06 67.92 107.96 68.42 106.85 68.91 Z" opacity="1"/><path fill="#00459a" d="M 152.01 68.27 C 154.07 64.87 158.81 64.01 162.22 65.74 C 169.00 69.05 168.17 81.87 160.06 82.73 C 155.81 83.99 150.15 80.85 151.55 75.90 C 153.36 71.36 158.82 72.36 162.68 72.42 C 162.12 70.70 161.82 68.61 160.03 67.69 C 157.35 67.25 154.67 68.05 152.01 68.27 M 155.74 75.85 C 155.02 76.94 155.36 78.35 155.32 79.59 C 157.30 79.85 159.29 79.69 161.26 79.39 C 161.68 77.85 162.13 76.31 162.59 74.77 C 160.29 74.83 157.70 74.31 155.74 75.85 Z" opacity="1"/><path fill="#00459a" d="M 120.68 68.67 C 123.75 63.31 133.67 63.28 135.67 69.59 C 136.72 73.93 135.96 78.47 136.16 82.89 C 134.66 82.40 132.86 82.20 131.93 80.74 C 131.14 77.15 132.15 73.37 131.27 69.78 C 130.10 66.70 125.11 67.12 124.48 70.31 C 123.99 74.49 124.39 78.72 124.21 82.92 C 122.41 82.21 119.90 81.64 119.89 79.23 C 119.77 75.73 119.33 72.01 120.68 68.67 Z" opacity="1"/><path fill="#00459a" d="M 272.40 84.52 C 273.76 83.54 274.55 81.58 276.33 81.34 C 267.46 90.31 257.75 98.55 246.72 104.76 C 220.65 119.84 189.85 124.71 160.08 123.49 C 144.50 122.64 128.92 120.26 114.04 115.47 C 96.12 109.84 79.89 99.75 65.53 87.80 C 65.67 87.37 65.94 86.50 66.07 86.07 C 71.07 88.58 75.59 91.92 80.55 94.50 C 104.05 106.70 130.80 110.66 156.93 112.23 C 183.88 113.27 211.20 110.94 237.04 102.89 C 249.78 98.95 262.13 93.14 272.40 84.52 Z" opacity="1"/><path fill="#00459a" d="M 39.72 102.65 C 41.85 100.94 42.56 98.18 43.63 95.79 C 43.34 99.81 42.74 104.09 40.25 107.40 C 35.87 109.05 34.56 102.87 32.97 100.04 C 34.82 101.64 37.04 103.86 39.72 102.65 Z" opacity="1"/></g></svg>